<svg width="16" height="18" viewBox="0 0 16 18" fill="none" xmlns="http://www.w3.org/2000/svg">
<path d="M10.8126 7.875V4.5C10.8126 2.9467 9.55342 1.6875 8.00012 1.6875C6.44682 1.6875 5.18762 2.9467 5.18762 4.5V7.875M13.7046 6.38042L14.652 15.3804C14.7044 15.8786 14.3138 16.3125 13.8129 16.3125H2.18735C1.68641 16.3125 1.29579 15.8786 1.34823 15.3804L2.2956 6.38042C2.3408 5.951 2.70292 5.625 3.13471 5.625H12.8655C13.2973 5.625 13.6594 5.951 13.7046 6.38042ZM5.46887 7.875C5.46887 8.03033 5.34295 8.15625 5.18762 8.15625C5.03229 8.15625 4.90637 8.03033 4.90637 7.875C4.90637 7.71967 5.03229 7.59375 5.18762 7.59375C5.34295 7.59375 5.46887 7.71967 5.46887 7.875ZM11.0939 7.875C11.0939 8.03033 10.9679 8.15625 10.8126 8.15625C10.6573 8.15625 10.5314 8.03033 10.5314 7.875C10.5314 7.71967 10.6573 7.59375 10.8126 7.59375C10.9679 7.59375 11.0939 7.71967 11.0939 7.875Z" stroke="#1D1D1F" stroke-width="1.5" stroke-linecap="round" stroke-linejoin="round"/>
</svg>
