<svg width="29" height="28" viewBox="0 0 29 28" fill="none" xmlns="http://www.w3.org/2000/svg">
<path d="M18.8747 12.25V7C18.8747 4.58375 16.916 2.625 14.4997 2.625C12.0835 2.625 10.1247 4.58375 10.1247 7V12.25M23.3734 9.9251L24.8471 23.9251C24.9287 24.7 24.3211 25.375 23.5418 25.375H5.45766C4.67843 25.375 4.0708 24.7 4.15237 23.9251L5.62606 9.9251C5.69637 9.25711 6.25966 8.75 6.93134 8.75H22.0682C22.7398 8.75 23.3031 9.25711 23.3734 9.9251ZM10.5622 12.25C10.5622 12.4916 10.3664 12.6875 10.1247 12.6875C9.88312 12.6875 9.68725 12.4916 9.68725 12.25C9.68725 12.0084 9.88312 11.8125 10.1247 11.8125C10.3664 11.8125 10.5622 12.0084 10.5622 12.25ZM19.3122 12.25C19.3122 12.4916 19.1164 12.6875 18.8747 12.6875C18.6331 12.6875 18.4372 12.4916 18.4372 12.25C18.4372 12.0084 18.6331 11.8125 18.8747 11.8125C19.1164 11.8125 19.3122 12.0084 19.3122 12.25Z" stroke="black" stroke-width="1.8" stroke-linecap="round" stroke-linejoin="round"/>
</svg>
