<svg width="29" height="28" viewBox="0 0 29 28" fill="none" xmlns="http://www.w3.org/2000/svg">
<path d="M4.875 7C4.875 5.55025 6.05025 4.375 7.5 4.375H10.125C11.5747 4.375 12.75 5.55025 12.75 7V9.625C12.75 11.0747 11.5747 12.25 10.125 12.25H7.5C6.05025 12.25 4.875 11.0747 4.875 9.625V7Z" stroke="black" stroke-width="1.8" stroke-linecap="round" stroke-linejoin="round"/>
<path d="M4.875 18.375C4.875 16.9252 6.05025 15.75 7.5 15.75H10.125C11.5747 15.75 12.75 16.9252 12.75 18.375V21C12.75 22.4497 11.5747 23.625 10.125 23.625H7.5C6.05025 23.625 4.875 22.4497 4.875 21V18.375Z" stroke="black" stroke-width="1.8" stroke-linecap="round" stroke-linejoin="round"/>
<path d="M16.25 7C16.25 5.55025 17.4252 4.375 18.875 4.375H21.5C22.9497 4.375 24.125 5.55025 24.125 7V9.625C24.125 11.0747 22.9497 12.25 21.5 12.25H18.875C17.4252 12.25 16.25 11.0747 16.25 9.625V7Z" stroke="black" stroke-width="1.8" stroke-linecap="round" stroke-linejoin="round"/>
<path d="M16.25 18.375C16.25 16.9252 17.4252 15.75 18.875 15.75H21.5C22.9497 15.75 24.125 16.9252 24.125 18.375V21C24.125 22.4497 22.9497 23.625 21.5 23.625H18.875C17.4252 23.625 16.25 22.4497 16.25 21V18.375Z" stroke="black" stroke-width="1.8" stroke-linecap="round" stroke-linejoin="round"/>
</svg>
