<svg width="178" height="30" viewBox="0 0 178 30" fill="none" xmlns="http://www.w3.org/2000/svg">
<path d="M163.449 0H163.294C162.143 0 161.211 0.932549 161.211 2.0829V9.91087C161.211 11.0612 162.143 11.9938 163.294 11.9938H163.449C164.6 11.9938 165.532 11.0612 165.532 9.91087V2.0829C165.532 0.932549 164.6 0 163.449 0Z" fill="#DF0000"/>
<path d="M15.544 8.51409V29.7628C15.544 29.7999 15.5293 29.8355 15.503 29.8617C15.4768 29.8879 15.4412 29.9027 15.4041 29.9027H9.15543C9.11832 29.9027 9.08274 29.8879 9.05651 29.8617C9.03027 29.8355 9.01553 29.7999 9.01553 29.7628V8.51409C9.01553 8.47699 9.00079 8.44139 8.97455 8.41516C8.94832 8.38892 8.91274 8.37419 8.87563 8.37419H0.139895C0.102792 8.37419 0.0672113 8.35946 0.0409757 8.33322C0.0147401 8.30699 0 8.27139 0 8.23429V1.9856C0 1.96723 0.00361907 1.94903 0.0106495 1.93206C0.01768 1.91508 0.0279852 1.89966 0.0409757 1.88667C0.0539663 1.87368 0.0693877 1.86338 0.0863607 1.85635C0.103334 1.84932 0.121524 1.8457 0.139895 1.8457H24.4197C24.438 1.8457 24.4562 1.84932 24.4732 1.85635C24.4902 1.86338 24.5056 1.87368 24.5186 1.88667C24.5316 1.89966 24.5419 1.91508 24.5489 1.93206C24.5559 1.94903 24.5595 1.96723 24.5595 1.9856V8.23429C24.5595 8.27139 24.5448 8.30699 24.5186 8.33322C24.4923 8.35946 24.4568 8.37419 24.4197 8.37419H15.6839C15.6468 8.37419 15.6112 8.38892 15.585 8.41516C15.5588 8.44139 15.544 8.47699 15.544 8.51409Z" fill="black"/>
<path d="M33.6569 12.7277H53.6278C53.6691 12.7277 53.7086 12.7441 53.7378 12.7732C53.7669 12.8024 53.7833 12.8419 53.7833 12.8831V19.0603C53.7833 19.1909 53.718 19.2562 53.5874 19.2562H33.7191C33.6836 19.2563 33.6485 19.264 33.6163 19.2786C33.584 19.2933 33.5553 19.3146 33.532 19.3411C33.5087 19.3676 33.4915 19.3987 33.4814 19.4323C33.4713 19.4659 33.4686 19.5013 33.4735 19.536C33.8559 22.5702 35.6869 23.2945 38.5346 23.2945C43.5688 23.2987 48.5988 23.2997 53.6247 23.2976C53.6668 23.2976 53.7071 23.314 53.7368 23.3431C53.7666 23.3723 53.7833 23.4118 53.7833 23.4531V29.7422C53.7833 29.7842 53.7666 29.8246 53.7368 29.8543C53.7071 29.884 53.6668 29.9007 53.6247 29.9007C48.9118 29.9049 44.2061 29.908 39.5077 29.9101C36.7947 29.9101 34.8776 29.7494 33.7564 29.4282C29.5471 28.2282 26.9201 24.5847 26.9574 20.0831C26.9802 17.3246 26.9823 14.5702 26.9636 11.8199C26.9294 7.19714 29.4662 3.52563 33.859 2.28833C34.916 1.98988 36.5564 1.8417 38.7802 1.84377C43.7315 1.84792 48.6797 1.84896 53.6247 1.84688C53.6668 1.84688 53.7071 1.86325 53.7368 1.8924C53.7666 1.92155 53.7833 1.9611 53.7833 2.00232V8.21371C53.7833 8.2544 53.767 8.29348 53.7379 8.32254C53.7089 8.35161 53.6693 8.36833 53.6278 8.36915C48.5211 8.38365 43.4248 8.38469 38.3388 8.37226C35.516 8.36293 33.5916 9.46967 33.5046 12.5723C33.5025 12.6759 33.5533 12.7277 33.6569 12.7277Z" fill="black"/>
<path d="M67.0036 29.9038C62.7974 29.8914 59.0078 27.4074 57.6648 23.394C57.3725 22.5235 57.2233 21.2313 57.2171 19.5173C57.2067 17.0303 57.1995 14.538 57.1953 12.0406C57.1891 7.32767 59.5052 3.60333 64.0813 2.29764C65.1155 2.00126 66.6741 1.85204 68.757 1.84997C73.8181 1.84168 78.8792 1.84168 83.9404 1.84997C84.044 1.84997 84.0958 1.90178 84.0958 2.00541V8.21368C84.0958 8.25408 84.0794 8.29283 84.0503 8.3214C84.0211 8.34997 83.9816 8.36601 83.9404 8.36601C78.8647 8.38259 73.7984 8.38467 68.7414 8.37223C64.8368 8.3629 63.7425 10.0292 63.7331 13.7318C63.73 15.8427 63.3445 19.5235 64.2057 21.2302C65.0948 22.9836 66.5653 23.3007 68.5487 23.3007C73.6844 23.2966 78.8139 23.2955 83.9372 23.2976C83.9793 23.2976 84.0196 23.3143 84.0494 23.344C84.0791 23.3738 84.0958 23.4141 84.0958 23.4562V29.7328C84.0958 29.8365 84.0429 29.8893 83.9372 29.8914C78.2813 29.9162 72.6367 29.9204 67.0036 29.9038Z" fill="black"/>
<path d="M94.0445 12.4934H108.494C108.536 12.4934 108.577 12.4767 108.606 12.4469C108.636 12.4172 108.653 12.3769 108.653 12.3348V2.00426C108.653 1.96221 108.669 1.92187 108.699 1.89213C108.729 1.8624 108.769 1.8457 108.811 1.8457H115.1C115.142 1.8457 115.183 1.8624 115.212 1.89213C115.242 1.92187 115.259 1.96221 115.259 2.00426V29.7441C115.259 29.7862 115.242 29.8265 115.212 29.8562C115.183 29.886 115.142 29.9027 115.1 29.9027H108.811C108.769 29.9027 108.729 29.886 108.699 29.8562C108.669 29.8265 108.653 29.7862 108.653 29.7441V19.1804C108.653 19.1383 108.636 19.098 108.606 19.0683C108.577 19.0385 108.536 19.0218 108.494 19.0218H94.0445C94.0024 19.0218 93.9621 19.0385 93.9323 19.0683C93.9026 19.098 93.8859 19.1383 93.8859 19.1804V29.7441C93.8859 29.7862 93.8692 29.8265 93.8395 29.8562C93.8097 29.886 93.7694 29.9027 93.7274 29.9027H87.516C87.4739 29.9027 87.4336 29.886 87.4039 29.8562C87.3741 29.8265 87.3574 29.7862 87.3574 29.7441V2.00426C87.3574 1.96221 87.3741 1.92187 87.4039 1.89213C87.4336 1.8624 87.4739 1.8457 87.516 1.8457H93.7274C93.7694 1.8457 93.8097 1.8624 93.8395 1.89213C93.8692 1.92187 93.8859 1.96221 93.8859 2.00426V12.3348C93.8859 12.3769 93.9026 12.4172 93.9323 12.4469C93.9621 12.4767 94.0024 12.4934 94.0445 12.4934Z" fill="black"/>
<path d="M125.208 11.7136V29.7478C125.208 29.789 125.192 29.8285 125.163 29.8577C125.133 29.8868 125.094 29.9032 125.053 29.9032H118.913C118.757 29.9032 118.68 29.8255 118.68 29.6701V2.00482C118.68 1.96195 118.697 1.92084 118.727 1.89052C118.757 1.8602 118.798 1.84316 118.841 1.84316C120.218 1.85145 121.608 1.85041 123.013 1.84005C125.867 1.81829 128.012 3.54057 129.564 5.88772C132.99 11.0732 136.396 16.2721 139.782 21.4846C139.795 21.5029 139.813 21.5168 139.834 21.5243C139.855 21.5317 139.877 21.5324 139.899 21.5262C139.92 21.52 139.939 21.5073 139.953 21.4897C139.966 21.4722 139.974 21.4508 139.975 21.4286V2.00171C139.975 1.96049 139.991 1.92094 140.021 1.89179C140.05 1.86264 140.089 1.84627 140.13 1.84627H146.385C146.516 1.84627 146.581 1.91156 146.581 2.04213V29.7447C146.581 29.7867 146.564 29.8271 146.535 29.8568C146.505 29.8865 146.465 29.9032 146.423 29.9032C144.349 29.9001 141.069 30.2732 139.185 29.5706C137.183 28.8214 135.402 26.8037 134.242 25.0535C131.293 20.6038 128.336 16.1406 125.37 11.6639C125.36 11.6481 125.345 11.6361 125.327 11.6298C125.31 11.6234 125.291 11.623 125.273 11.6286C125.255 11.6341 125.239 11.6454 125.227 11.6607C125.215 11.676 125.209 11.6945 125.208 11.7136Z" fill="black"/>
<path d="M175.826 22.6882C169.861 32.8664 154.643 32.0643 149.924 21.112C147.493 15.4633 148.867 9.08406 153.275 4.78459C153.942 4.13381 154.582 3.75351 155.193 3.64366C157.006 3.32346 158.663 5.18251 158.193 6.95453C158.071 7.4167 157.734 7.92552 157.183 8.48096C155.37 10.3058 154.292 12.2923 154.149 14.8447C153.667 23.5649 164.616 27.8768 170.255 21.2457C173.445 17.4934 173.091 12.1587 169.59 8.66437C169.012 8.0882 168.68 7.68303 168.595 7.44883C168.017 5.87164 168.38 4.70997 169.683 3.96386C171.101 3.15246 172.419 3.85194 173.507 4.97422C178.205 9.81774 179.252 16.8467 175.826 22.6882Z" fill="#DF0000"/>
</svg>
