<svg width="155" height="26" viewBox="0 0 155 26" fill="none" xmlns="http://www.w3.org/2000/svg">
<path d="M141.659 0H141.524C140.527 0 139.719 0.808225 139.719 1.80522V8.58958C139.719 9.58658 140.527 10.3948 141.524 10.3948H141.659C142.656 10.3948 143.464 9.58658 143.464 8.58958V1.80522C143.464 0.808225 142.656 0 141.659 0Z" fill="#FC1000"/>
<path d="M13.4717 7.37911V25.795C13.4717 25.8271 13.459 25.858 13.4362 25.8807C13.4135 25.9035 13.3827 25.9162 13.3505 25.9162H7.93486C7.9027 25.9162 7.87186 25.9035 7.84912 25.8807C7.82639 25.858 7.81361 25.8271 7.81361 25.795V7.37911C7.81361 7.34696 7.80084 7.31611 7.7781 7.29337C7.75536 7.27063 7.72452 7.25786 7.69237 7.25786H0.121245C0.0890885 7.25786 0.058251 7.2451 0.035513 7.22236C0.012775 7.19962 0 7.16877 0 7.13661V1.72098C0 1.70506 0.00313659 1.68928 0.00922976 1.67457C0.0153229 1.65986 0.0242543 1.64649 0.035513 1.63524C0.0467717 1.62398 0.0601372 1.61505 0.0748474 1.60896C0.0895576 1.60286 0.105323 1.59973 0.121245 1.59973H21.1641C21.18 1.59973 21.1958 1.60286 21.2105 1.60896C21.2252 1.61505 21.2386 1.62398 21.2498 1.63524C21.2611 1.64649 21.27 1.65986 21.2761 1.67457C21.2822 1.68928 21.2854 1.70506 21.2854 1.72098V7.13661C21.2854 7.16877 21.2726 7.19962 21.2498 7.22236C21.2271 7.2451 21.1963 7.25786 21.1641 7.25786H13.593C13.5608 7.25786 13.53 7.27063 13.5073 7.29337C13.4845 7.31611 13.4717 7.34696 13.4717 7.37911Z" fill="white"/>
<path d="M29.1696 11.0307H46.4781C46.5138 11.0307 46.5481 11.0449 46.5733 11.0702C46.5986 11.0954 46.6128 11.1297 46.6128 11.1654V16.5191C46.6128 16.6323 46.5562 16.6888 46.443 16.6888H29.2235C29.1927 16.689 29.1623 16.6956 29.1344 16.7083C29.1064 16.721 29.0815 16.7394 29.0613 16.7624C29.0412 16.7854 29.0262 16.8124 29.0175 16.8415C29.0087 16.8706 29.0064 16.9013 29.0106 16.9313C29.342 19.561 30.929 20.1888 33.397 20.1888C37.7601 20.1924 42.1195 20.1933 46.4754 20.1915C46.5118 20.1915 46.5468 20.2057 46.5725 20.2309C46.5983 20.2562 46.6128 20.2905 46.6128 20.3262V25.7769C46.6128 25.8133 46.5983 25.8483 46.5725 25.8741C46.5468 25.8998 46.5118 25.9143 46.4754 25.9143C42.3907 25.9179 38.3124 25.9206 34.2403 25.9224C31.8891 25.9224 30.2276 25.7832 29.2558 25.5047C25.6076 24.4647 23.3309 21.307 23.3633 17.4055C23.383 15.0147 23.3848 12.6276 23.3686 10.244C23.339 6.23747 25.5376 3.05544 29.3447 1.98309C30.2608 1.72443 31.6825 1.596 33.6099 1.5978C37.9011 1.60139 42.1896 1.60229 46.4754 1.60049C46.5118 1.60049 46.5468 1.61468 46.5725 1.63995C46.5983 1.66521 46.6128 1.69948 46.6128 1.73521V7.11851C46.6128 7.15378 46.5987 7.18765 46.5735 7.21284C46.5483 7.23803 46.514 7.25253 46.4781 7.25323C42.0522 7.26581 37.6352 7.26671 33.2273 7.25593C30.7808 7.24785 29.113 8.20704 29.0376 10.896C29.0358 10.9858 29.0798 11.0307 29.1696 11.0307Z" fill="white"/>
<path d="M58.0711 25.917C54.4256 25.9062 51.1412 23.7534 49.9773 20.275C49.724 19.5206 49.5947 18.4006 49.5893 16.9152C49.5803 14.7597 49.574 12.5997 49.5704 10.4352C49.565 6.3506 51.5723 3.12278 55.5384 1.99115C56.4347 1.73429 57.7855 1.60496 59.5907 1.60317C63.9771 1.59598 68.3635 1.59598 72.7499 1.60317C72.8397 1.60317 72.8846 1.64807 72.8846 1.73788V7.11849C72.8846 7.15351 72.8704 7.18709 72.8452 7.21185C72.8199 7.23661 72.7856 7.25051 72.7499 7.25051C68.3509 7.26488 63.96 7.26668 59.5772 7.25591C56.1931 7.24782 55.2447 8.69199 55.2366 11.901C55.2339 13.7304 54.8998 16.9205 55.6462 18.3997C56.4168 19.9193 57.6912 20.1942 59.4102 20.1942C63.8612 20.1906 68.3069 20.1897 72.7472 20.1915C72.7836 20.1915 72.8186 20.2059 72.8444 20.2317C72.8701 20.2575 72.8846 20.2924 72.8846 20.3289V25.7688C72.8846 25.8586 72.8388 25.9044 72.7472 25.9062C67.8453 25.9277 62.9532 25.9313 58.0711 25.917Z" fill="white"/>
<path d="M81.5069 10.8279H94.0302C94.0667 10.8279 94.1016 10.8134 94.1274 10.7876C94.1531 10.7619 94.1676 10.7269 94.1676 10.6905V1.73715C94.1676 1.7007 94.1821 1.66574 94.2079 1.63997C94.2336 1.6142 94.2686 1.59973 94.305 1.59973H99.7557C99.7921 1.59973 99.8271 1.6142 99.8529 1.63997C99.8786 1.66574 99.8931 1.7007 99.8931 1.73715V25.7788C99.8931 25.8153 99.8786 25.8502 99.8529 25.876C99.8271 25.9018 99.7921 25.9162 99.7557 25.9162H94.305C94.2686 25.9162 94.2336 25.9018 94.2079 25.876C94.1821 25.8502 94.1676 25.8153 94.1676 25.7788V16.6234C94.1676 16.587 94.1531 16.552 94.1274 16.5262C94.1016 16.5005 94.0667 16.486 94.0302 16.486H81.5069C81.4704 16.486 81.4355 16.5005 81.4097 16.5262C81.3839 16.552 81.3695 16.587 81.3695 16.6234V25.7788C81.3695 25.8153 81.355 25.8502 81.3292 25.876C81.3034 25.9018 81.2685 25.9162 81.2321 25.9162H75.8487C75.8123 25.9162 75.7774 25.9018 75.7516 25.876C75.7258 25.8502 75.7113 25.8153 75.7113 25.7788V1.73715C75.7113 1.7007 75.7258 1.66574 75.7516 1.63997C75.7774 1.6142 75.8123 1.59973 75.8487 1.59973H81.2321C81.2685 1.59973 81.3034 1.6142 81.3292 1.63997C81.355 1.66574 81.3695 1.7007 81.3695 1.73715V10.6905C81.3695 10.7269 81.3839 10.7619 81.4097 10.7876C81.4355 10.8134 81.4704 10.8279 81.5069 10.8279Z" fill="white"/>
<path d="M108.516 10.152V25.782C108.516 25.8177 108.502 25.852 108.476 25.8772C108.451 25.9025 108.417 25.9167 108.381 25.9167H103.06C102.925 25.9167 102.858 25.8493 102.858 25.7146V1.73759C102.858 1.70043 102.873 1.6648 102.899 1.63852C102.925 1.61225 102.961 1.59748 102.998 1.59748C104.191 1.60466 105.396 1.60376 106.614 1.59478C109.087 1.57592 110.946 3.0686 112.291 5.10283C115.26 9.597 118.212 14.1028 121.147 18.6204C121.158 18.6362 121.174 18.6483 121.192 18.6548C121.21 18.6613 121.23 18.6618 121.248 18.6565C121.267 18.6511 121.283 18.64 121.295 18.6248C121.307 18.6097 121.313 18.5911 121.314 18.5719V1.73489C121.314 1.69916 121.328 1.66489 121.354 1.63963C121.379 1.61436 121.413 1.60018 121.449 1.60018H126.87C126.983 1.60018 127.04 1.65676 127.04 1.76992V25.7793C127.04 25.8157 127.025 25.8507 126.999 25.8764C126.974 25.9022 126.939 25.9167 126.902 25.9167C125.105 25.914 122.262 26.2373 120.63 25.6284C118.895 24.979 117.351 23.2304 116.346 21.7135C113.79 17.857 111.226 13.9888 108.656 10.1089C108.647 10.0953 108.634 10.0849 108.619 10.0794C108.604 10.0739 108.588 10.0735 108.572 10.0783C108.556 10.0832 108.542 10.0929 108.532 10.1062C108.522 10.1194 108.516 10.1355 108.516 10.152Z" fill="white"/>
<path d="M152.386 19.6632C147.215 28.4845 134.027 27.7893 129.937 18.2972C127.83 13.4015 129.02 7.87274 132.841 4.14645C133.419 3.58243 133.974 3.25283 134.503 3.15763C136.074 2.88011 137.51 4.49132 137.104 6.0271C136.998 6.42766 136.706 6.86865 136.228 7.35004C134.657 8.93162 133.722 10.6533 133.598 12.8654C133.181 20.423 142.67 24.1601 147.558 18.413C150.322 15.161 150.015 10.5374 146.981 7.50899C146.48 7.00964 146.192 6.65848 146.119 6.45551C145.618 5.08858 145.932 4.08178 147.062 3.43514C148.29 2.73191 149.433 3.33814 150.376 4.3108C154.447 8.5086 155.355 14.6005 152.386 19.6632Z" fill="#FC1000"/>
</svg>
